<?xml version="1.0" encoding="UTF-8" standalone="no"?>
<svg
   xmlns:dc="http://purl.org/dc/elements/1.1/"
   xmlns:cc="http://creativecommons.org/ns#"
   xmlns:rdf="http://www.w3.org/1999/02/22-rdf-syntax-ns#"
   xmlns:svg="http://www.w3.org/2000/svg"
   xmlns="http://www.w3.org/2000/svg"
   xmlns:sodipodi="http://sodipodi.sourceforge.net/DTD/sodipodi-0.dtd"
   xmlns:inkscape="http://www.inkscape.org/namespaces/inkscape"
   width="50mm"
   height="50mm"
   viewBox="0 0 50 50"
   version="1.1"
   id="svg8"
   inkscape:version="1.0.1 (3bc2e813f5, 2020-09-07)"
   sodipodi:docname="crown_logo.svg">
  <defs
     id="defs2">
    <inkscape:path-effect
       effect="fillet_chamfer"
       id="path-effect1699"
       is_visible="true"
       lpeversion="1"
       satellites_param="F,0,0,1,0,0.79375,0,1 @ F,0,0,1,0,0.79375,0,1 @ F,0,0,1,0,0.79375,0,1 @ F,0,0,1,0,0.79375,0,1 @ F,0,0,1,0,0.79375,0,1 @ F,0,0,1,0,0.79375,0,1 @ F,0,0,1,0,0.79375,0,1"
       unit="px"
       method="auto"
       mode="F"
       radius="3"
       chamfer_steps="1"
       flexible="false"
       use_knot_distance="true"
       apply_no_radius="true"
       apply_with_radius="true"
       only_selected="false"
       hide_knots="false" />
    <inkscape:path-effect
       effect="fillet_chamfer"
       id="path-effect1697"
       is_visible="true"
       lpeversion="1"
       satellites_param="F,0,0,1,0,0.52916667,0,1 @ F,0,0,1,0,0.52916667,0,1 @ F,0,0,1,0,0.52916667,0,1 @ F,0,0,1,0,0.52916667,0,1 @ F,0,0,1,0,0.52916667,0,1 @ F,0,0,1,0,0.52916667,0,1 @ F,0,0,1,0,0.52916667,0,1"
       unit="px"
       method="auto"
       mode="F"
       radius="2"
       chamfer_steps="1"
       flexible="false"
       use_knot_distance="true"
       apply_no_radius="true"
       apply_with_radius="true"
       only_selected="false"
       hide_knots="false" />
    <inkscape:path-effect
       effect="fillet_chamfer"
       id="path-effect1695"
       is_visible="true"
       lpeversion="1"
       satellites_param="F,0,0,1,0,0.79375,0,1 @ F,0,0,1,0,0.79375,0,1 @ F,0,0,1,0,0.79375,0,1 @ F,0,0,1,0,0.79375,0,1 @ F,0,0,1,0,0.79375,0,1 @ F,0,0,1,0,0.79375,0,1 @ F,0,0,1,0,0.79375,0,1"
       unit="px"
       method="auto"
       mode="F"
       radius="3"
       chamfer_steps="1"
       flexible="false"
       use_knot_distance="true"
       apply_no_radius="true"
       apply_with_radius="true"
       only_selected="false"
       hide_knots="false" />
    <inkscape:path-effect
       effect="fillet_chamfer"
       id="path-effect1693"
       is_visible="true"
       lpeversion="1"
       satellites_param="F,0,0,1,0,0.79375,0,1 @ F,0,0,1,0,0.79375,0,1 @ F,0,0,1,0,0.79375,0,1 @ F,0,0,1,0,0.79375,0,1 @ F,0,0,1,0,0.79375,0,1 @ F,0,0,1,0,0.79375,0,1 @ F,0,0,1,0,0.79375,0,1"
       unit="px"
       method="auto"
       mode="F"
       radius="3"
       chamfer_steps="1"
       flexible="false"
       use_knot_distance="true"
       apply_no_radius="true"
       apply_with_radius="true"
       only_selected="false"
       hide_knots="false" />
    <inkscape:path-effect
       effect="fillet_chamfer"
       id="path-effect2326"
       is_visible="true"
       lpeversion="1"
       satellites_param="F,0,0,1,0,0.79375,0,1 @ F,0,0,1,0,0.79375,0,1 @ F,0,0,1,0,0.79375,0,1 @ F,0,0,1,0,0.79375,0,1 @ F,0,0,1,0,0.79375,0,1 @ F,0,0,1,0,0.79375,0,1 @ F,0,0,1,0,0.79375,0,1"
       unit="px"
       method="auto"
       mode="F"
       radius="3"
       chamfer_steps="1"
       flexible="false"
       use_knot_distance="true"
       apply_no_radius="true"
       apply_with_radius="true"
       only_selected="false"
       hide_knots="false" />
    <inkscape:path-effect
       effect="fillet_chamfer"
       id="path-effect2328"
       is_visible="true"
       lpeversion="1"
       satellites_param="F,0,0,1,0,0.79375,0,1 @ F,0,0,1,0,0.79375,0,1 @ F,0,0,1,0,0.79375,0,1 @ F,0,0,1,0,0.79375,0,1 @ F,0,0,1,0,0.79375,0,1 @ F,0,0,1,0,0.79375,0,1 @ F,0,0,1,0,0.79375,0,1"
       unit="px"
       method="auto"
       mode="F"
       radius="3"
       chamfer_steps="1"
       flexible="false"
       use_knot_distance="true"
       apply_no_radius="true"
       apply_with_radius="true"
       only_selected="false"
       hide_knots="false" />
    <inkscape:path-effect
       effect="fillet_chamfer"
       id="path-effect2340"
       is_visible="true"
       lpeversion="1"
       satellites_param="F,0,0,1,0,0.79375,0,1 @ F,0,0,1,0,0.79375,0,1 @ F,0,0,1,0,0.79375,0,1 @ F,0,0,1,0,0.79375,0,1 @ F,0,0,1,0,0.79375,0,1 @ F,0,0,1,0,0.79375,0,1 @ F,0,0,1,0,0.79375,0,1"
       unit="px"
       method="auto"
       mode="F"
       radius="3"
       chamfer_steps="1"
       flexible="false"
       use_knot_distance="true"
       apply_no_radius="true"
       apply_with_radius="true"
       only_selected="false"
       hide_knots="false" />
    <inkscape:path-effect
       effect="fillet_chamfer"
       id="path-effect2342"
       is_visible="true"
       lpeversion="1"
       satellites_param="F,0,0,1,0,0.79375,0,1 @ F,0,0,1,0,0.79375,0,1 @ F,0,0,1,0,0.79375,0,1 @ F,0,0,1,0,0.79375,0,1 @ F,0,0,1,0,0.79375,0,1 @ F,0,0,1,0,0.79375,0,1 @ F,0,0,1,0,0.79375,0,1"
       unit="px"
       method="auto"
       mode="F"
       radius="3"
       chamfer_steps="1"
       flexible="false"
       use_knot_distance="true"
       apply_no_radius="true"
       apply_with_radius="true"
       only_selected="false"
       hide_knots="false" />
    <inkscape:path-effect
       effect="fillet_chamfer"
       id="path-effect2466"
       is_visible="true"
       lpeversion="1"
       satellites_param="F,0,0,1,0,0.79375,0,1 @ F,0,0,1,0,0.79375,0,1 @ F,0,0,1,0,0.79375,0,1 @ F,0,0,1,0,0.79375,0,1 @ F,0,0,1,0,0.79375,0,1 @ F,0,0,1,0,0.79375,0,1 @ F,0,0,1,0,0.79375,0,1"
       unit="px"
       method="auto"
       mode="F"
       radius="3"
       chamfer_steps="1"
       flexible="false"
       use_knot_distance="true"
       apply_no_radius="true"
       apply_with_radius="true"
       only_selected="false"
       hide_knots="false" />
    <inkscape:path-effect
       effect="fillet_chamfer"
       id="path-effect2474"
       is_visible="true"
       lpeversion="1"
       satellites_param="F,0,0,1,0,0.52916667,0,1 @ F,0,0,1,0,0.52916667,0,1 @ F,0,0,1,0,0.52916667,0,1 @ F,0,0,1,0,0.52916667,0,1 @ F,0,0,1,0,0.52916667,0,1 @ F,0,0,1,0,0.52916667,0,1 @ F,0,0,1,0,0.52916667,0,1"
       unit="px"
       method="auto"
       mode="F"
       radius="2"
       chamfer_steps="1"
       flexible="false"
       use_knot_distance="true"
       apply_no_radius="true"
       apply_with_radius="true"
       only_selected="false"
       hide_knots="false" />
    <inkscape:path-effect
       effect="fillet_chamfer"
       id="path-effect2478"
       is_visible="true"
       lpeversion="1"
       satellites_param="F,0,0,1,0,0.79375,0,1 @ F,0,0,1,0,0.79375,0,1 @ F,0,0,1,0,0.79375,0,1 @ F,0,0,1,0,0.79375,0,1 @ F,0,0,1,0,0.79375,0,1 @ F,0,0,1,0,0.79375,0,1 @ F,0,0,1,0,0.79375,0,1"
       unit="px"
       method="auto"
       mode="F"
       radius="3"
       chamfer_steps="1"
       flexible="false"
       use_knot_distance="true"
       apply_no_radius="true"
       apply_with_radius="true"
       only_selected="false"
       hide_knots="false" />
    <inkscape:path-effect
       effect="fillet_chamfer"
       id="path-effect2486"
       is_visible="true"
       lpeversion="1"
       satellites_param="F,0,0,1,0,0.79375,0,1 @ F,0,0,1,0,0.79375,0,1 @ F,0,0,1,0,0.79375,0,1 @ F,0,0,1,0,0.79375,0,1 @ F,0,0,1,0,0.79375,0,1 @ F,0,0,1,0,0.79375,0,1 @ F,0,0,1,0,0.79375,0,1"
       unit="px"
       method="auto"
       mode="F"
       radius="3"
       chamfer_steps="1"
       flexible="false"
       use_knot_distance="true"
       apply_no_radius="true"
       apply_with_radius="true"
       only_selected="false"
       hide_knots="false" />
  </defs>
  <sodipodi:namedview
     id="base"
     pagecolor="#ffffff"
     bordercolor="#666666"
     borderopacity="1.0"
     inkscape:pageopacity="0.0"
     inkscape:pageshadow="2"
     inkscape:zoom="2.8"
     inkscape:cx="168.69923"
     inkscape:cy="176.03648"
     inkscape:document-units="mm"
     inkscape:current-layer="layer1"
     inkscape:document-rotation="0"
     showgrid="false"
     inkscape:window-width="2560"
     inkscape:window-height="1376"
     inkscape:window-x="0"
     inkscape:window-y="0"
     inkscape:window-maximized="1" />
  <metadata
     id="metadata5">
    <rdf:RDF>
      <cc:Work
         rdf:about="">
        <dc:format>image/svg+xml</dc:format>
        <dc:type
           rdf:resource="http://purl.org/dc/dcmitype/StillImage" />
        <dc:title></dc:title>
      </cc:Work>
    </rdf:RDF>
  </metadata>
  <g
     inkscape:label="Layer 1"
     inkscape:groupmode="layer"
     id="layer1">
    <g
       id="g2324"
       transform="matrix(1.5969109,-0.96721941,0.96721941,1.5969109,-374.64672,-282.40392)"
       style="font-style:normal;font-weight:normal;font-size:10.5833px;line-height:1.25;font-family:sans-serif;fill:#000000;fill-opacity:1;stroke:none;stroke-width:0.264583">
      <path
         style="fill:#eecb00;fill-opacity:1;stroke:none;stroke-width:0.264583px;stroke-linecap:butt;stroke-linejoin:miter;stroke-opacity:1"
         d="m 95.16817,256.63578 h 9.09254 a 0.96885587,0.96885587 140.67343 0 0 0.94992,-0.77824 l 2.45463,-12.23216 a 0.14278409,0.14278409 21.544471 0 0 -0.26142,-0.10322 l -4.04627,6.54073 a 0.39848698,0.39848698 5.0840262 0 1 -0.70945,-0.0631 l -2.55691,-6.46657 a 0.31248423,0.31248423 179.91458 0 0 -0.581526,8.7e-4 l -2.56374,6.54082 a 0.38200967,0.38200967 175.70298 0 1 -0.686504,0.0516 l -3.930933,-6.80933 a 0.14070217,0.14070217 160.05475 0 0 -0.260465,0.0945 l 2.170001,12.44217 a 0.94416708,0.94416708 40.053366 0 0 0.930127,0.78195 z"
         id="path2316"
         inkscape:path-effect="#path-effect2326"
         inkscape:original-d="m 94.37442,256.63578 h 10.68004 l 2.76697,-13.78864 -4.88145,7.89077 -3.140634,-7.94285 -3.143064,8.01884 -4.724617,-8.18419 z" />
      <path
         style="fill:#eb7f00;fill-opacity:1;stroke:none;stroke-width:0.264583px;stroke-linecap:butt;stroke-linejoin:miter;stroke-opacity:1"
         d="m 106.88193,244.36835 -2.19986,10.9616 a 0.96885587,0.96885587 0 0 1 -0.94982,0.77825 h -9.092468 a 0.94416707,0.94416707 0 0 1 -0.3483,-0.0667 0.94416707,0.94416707 0 0 0 0.877466,0.59583 h 9.092472 a 0.96885587,0.96885587 0 0 0 0.94981,-0.77825 l 2.45463,-12.23233 a 0.14278447,0.14278447 0 0 0 -0.26148,-0.10335 z"
         id="path2318" />
      <path
         id="path2320"
         style="fill:#ffffff;fill-opacity:1;stroke:none;stroke-width:0.264583px;stroke-linecap:butt;stroke-linejoin:miter;stroke-opacity:1"
         d="m 92.208025,243.24956 a 0.14070214,0.14070214 0 0 0 -0.140041,0.16485 l 2.169893,12.44265 a 0.94416741,0.94416741 0 0 0 0.581877,0.7152 0.94416672,0.94416672 0 0 1 -0.05271,-0.18603 l -2.169893,-12.44265 a 0.14070205,0.14070205 0 0 1 0.02739,-0.11007 l -0.296106,-0.51315 a 0.14070214,0.14070214 0 0 0 -0.120407,-0.0708 z m 7.578871,0.0894 a 0.31248334,0.31248334 0 0 0 -0.27698,0.19792 l -2.564195,6.54121 a 0.38200906,0.38200906 0 0 1 -0.352433,0.24236 l 0.195336,0.33796 a 0.38200967,0.38200967 0 0 0 0.686263,-0.0512 l 2.564193,-6.5412 a 0.31248381,0.31248381 0 0 1 0.19017,-0.18138 l -0.13797,-0.3483 a 0.31248334,0.31248334 0 0 0 -0.304384,-0.19741 z m 7.729254,0.11886 a 0.14278447,0.14278447 0 0 0 -0.11214,0.0672 l -4.04627,6.54068 a 0.39848721,0.39848721 0 0 1 -0.29093,0.18604 l 0.11058,0.28008 a 0.39848668,0.39848668 0 0 0 0.70952,0.0631 l 3.52382,-5.69578 0.25476,-1.27072 a 0.14278447,0.14278447 0 0 0 -0.14934,-0.17053 z" />
      <path
         style="fill:none;fill-opacity:1;stroke:#000000;stroke-width:0.365;stroke-linecap:butt;stroke-linejoin:miter;stroke-miterlimit:4;stroke-dasharray:none;stroke-opacity:1"
         d="m 95.16817,256.63578 h 9.09254 a 0.96885587,0.96885587 140.67343 0 0 0.94992,-0.77824 l 2.45463,-12.23216 a 0.14278447,0.14278447 21.544498 0 0 -0.26142,-0.10322 l -4.04628,6.54073 a 0.3984869,0.3984869 5.0840836 0 1 -0.70945,-0.0631 l -2.5569,-6.46657 a 0.31248373,0.31248373 179.91461 0 0 -0.581526,8.7e-4 l -2.56374,6.54082 a 0.38200967,0.38200967 175.70298 0 1 -0.686504,0.0516 l -3.930933,-6.80933 a 0.14070217,0.14070217 160.05475 0 0 -0.260465,0.0945 l 2.170001,12.44217 a 0.94416708,0.94416708 40.053366 0 0 0.930127,0.78195 z"
         id="path2322"
         inkscape:path-effect="#path-effect2328"
         inkscape:original-d="m 94.37442,256.63578 h 10.68004 l 2.76697,-13.78864 -4.88146,7.89077 -3.140624,-7.94285 -3.143064,8.01884 -4.724617,-8.18419 z" />
    </g>
    <g
       id="g2338"
       transform="matrix(2.1488122,0,0,2.1488122,-188.75248,-503.06372)"
       style="font-style:normal;font-weight:normal;font-size:10.5833px;line-height:1.25;font-family:sans-serif;fill:#000000;fill-opacity:1;stroke:none;stroke-width:0.264583">
      <path
         style="fill:#eecb00;fill-opacity:1;stroke:none;stroke-width:0.264583px;stroke-linecap:butt;stroke-linejoin:miter;stroke-opacity:1"
         d="m 95.16817,256.63578 h 9.09254 a 0.96885587,0.96885587 140.67343 0 0 0.94992,-0.77824 l 2.45463,-12.23216 a 0.14278409,0.14278409 21.544471 0 0 -0.26142,-0.10322 l -4.04627,6.54073 a 0.39848698,0.39848698 5.0840262 0 1 -0.70945,-0.0631 l -2.55691,-6.46657 a 0.31248423,0.31248423 179.91458 0 0 -0.581526,8.7e-4 l -2.56374,6.54082 a 0.38200967,0.38200967 175.70298 0 1 -0.686504,0.0516 l -3.930933,-6.80933 a 0.14070217,0.14070217 160.05475 0 0 -0.260465,0.0945 l 2.170001,12.44217 a 0.94416708,0.94416708 40.053366 0 0 0.930127,0.78195 z"
         id="path2330"
         inkscape:path-effect="#path-effect2340"
         inkscape:original-d="m 94.37442,256.63578 h 10.68004 l 2.76697,-13.78864 -4.88145,7.89077 -3.140634,-7.94285 -3.143064,8.01884 -4.724617,-8.18419 z" />
      <path
         style="fill:#eb7f00;fill-opacity:1;stroke:none;stroke-width:0.264583px;stroke-linecap:butt;stroke-linejoin:miter;stroke-opacity:1"
         d="m 106.88193,244.36835 -2.19986,10.9616 a 0.96885587,0.96885587 0 0 1 -0.94982,0.77825 h -9.092468 a 0.94416707,0.94416707 0 0 1 -0.3483,-0.0667 0.94416707,0.94416707 0 0 0 0.877466,0.59583 h 9.092472 a 0.96885587,0.96885587 0 0 0 0.94981,-0.77825 l 2.45463,-12.23233 a 0.14278447,0.14278447 0 0 0 -0.26148,-0.10335 z"
         id="path2332" />
      <path
         id="path2334"
         style="fill:#ffffff;fill-opacity:1;stroke:none;stroke-width:0.264583px;stroke-linecap:butt;stroke-linejoin:miter;stroke-opacity:1"
         d="m 92.208025,243.24956 a 0.14070214,0.14070214 0 0 0 -0.140041,0.16485 l 2.169893,12.44265 a 0.94416741,0.94416741 0 0 0 0.581877,0.7152 0.94416672,0.94416672 0 0 1 -0.05271,-0.18603 l -2.169893,-12.44265 a 0.14070205,0.14070205 0 0 1 0.02739,-0.11007 l -0.296106,-0.51315 a 0.14070214,0.14070214 0 0 0 -0.120407,-0.0708 z m 7.578871,0.0894 a 0.31248334,0.31248334 0 0 0 -0.27698,0.19792 l -2.564195,6.54121 a 0.38200906,0.38200906 0 0 1 -0.352433,0.24236 l 0.195336,0.33796 a 0.38200967,0.38200967 0 0 0 0.686263,-0.0512 l 2.564193,-6.5412 a 0.31248381,0.31248381 0 0 1 0.19017,-0.18138 l -0.13797,-0.3483 a 0.31248334,0.31248334 0 0 0 -0.304384,-0.19741 z m 7.729254,0.11886 a 0.14278447,0.14278447 0 0 0 -0.11214,0.0672 l -4.04627,6.54068 a 0.39848721,0.39848721 0 0 1 -0.29093,0.18604 l 0.11058,0.28008 a 0.39848668,0.39848668 0 0 0 0.70952,0.0631 l 3.52382,-5.69578 0.25476,-1.27072 a 0.14278447,0.14278447 0 0 0 -0.14934,-0.17053 z" />
      <path
         style="fill:none;fill-opacity:1;stroke:#000000;stroke-width:0.365;stroke-linecap:butt;stroke-linejoin:miter;stroke-miterlimit:4;stroke-dasharray:none;stroke-opacity:1"
         d="m 95.16817,256.63578 h 9.09254 a 0.96885587,0.96885587 140.67343 0 0 0.94992,-0.77824 l 2.45463,-12.23216 a 0.14278447,0.14278447 21.544498 0 0 -0.26142,-0.10322 l -4.04628,6.54073 a 0.3984869,0.3984869 5.0840836 0 1 -0.70945,-0.0631 l -2.5569,-6.46657 a 0.31248373,0.31248373 179.91461 0 0 -0.581526,8.7e-4 l -2.56374,6.54082 a 0.38200967,0.38200967 175.70298 0 1 -0.686504,0.0516 l -3.930933,-6.80933 a 0.14070217,0.14070217 160.05475 0 0 -0.260465,0.0945 l 2.170001,12.44217 a 0.94416708,0.94416708 40.053366 0 0 0.930127,0.78195 z"
         id="path2336"
         inkscape:path-effect="#path-effect2342"
         inkscape:original-d="m 94.37442,256.63578 h 10.68004 l 2.76697,-13.78864 -4.88146,7.89077 -3.140624,-7.94285 -3.143064,8.01884 -4.724617,-8.18419 z" />
    </g>
    <path
       style="font-style:normal;font-weight:normal;font-size:10.5833px;line-height:1.25;font-family:sans-serif;fill:#eecb00;fill-opacity:1;stroke:none;stroke-width:0.493972px;stroke-linecap:butt;stroke-linejoin:miter;stroke-opacity:1"
       d="m 24.962871,35.728302 15.697202,-9.507514 a 0.96885615,0.96885615 109.4709 0 0 0.409328,-1.157777 L 32.690557,1.8606337 A 0.14278513,0.14278513 170.34202 0 0 32.413481,1.907786 L 32.265259,17.64264 a 0.39848835,0.39848835 153.88157 0 1 -0.639526,0.313556 L 20.19203,9.2701727 a 0.31248452,0.31248452 148.71206 0 0 -0.496955,0.3020101 l 2.466593,14.2810712 a 0.38200986,0.38200986 144.50047 0 1 -0.560473,0.399774 L 7.5316421,16.518147 A 0.14070147,0.14070147 128.85218 0 0 7.357824,16.73393 l 16.404371,18.807408 a 0.94416845,0.94416845 8.8507857 0 0 1.200676,0.186964 z"
       id="path2464"
       inkscape:path-effect="#path-effect1699"
       inkscape:original-d="M 24.283944,36.139516 41.339,25.809574 32.420958,1.1140712 32.257782,18.436355 19.559981,8.7900137 22.296762,24.635423 6.8360753,16.135752 Z" />
    <path
       style="font-style:normal;font-weight:normal;font-size:10.5833px;line-height:1.25;font-family:sans-serif;fill:#eb7f00;fill-opacity:1;stroke:none;stroke-width:0.493972px;stroke-linecap:butt;stroke-linejoin:miter;stroke-opacity:1"
       d="m 32.392017,4.4520156 7.089268,19.6324514 a 1.8088405,1.8088405 0 0 1 -0.764005,2.161467 l -14.519893,8.794422 a 1.7627469,1.7627469 0 0 1 -0.620706,0.23036 1.7627469,1.7627469 0 0 0 1.977546,0.102701 l 14.51986,-8.794424 a 1.8088405,1.8088405 0 0 0 0.764005,-2.161467 L 32.926568,2.5094253 a 0.26657666,0.26657666 0 0 0 -0.517496,0.0879 z"
       id="path2468" />
    <path
       id="path2470"
       style="font-style:normal;font-weight:normal;font-size:10.5833px;line-height:1.25;font-family:sans-serif;fill:#ffffff;fill-opacity:1;stroke:none;stroke-width:0.493972px;stroke-linecap:butt;stroke-linejoin:miter;stroke-opacity:1"
       d="m 7.8769769,16.85829 a 0.26268894,0.26268894 0 0 0 -0.064262,0.398713 L 23.312613,35.028023 A 1.7627474,1.7627474 0 0 0 24.93359,35.607339 1.7627462,1.7627462 0 0 1 24.669353,35.36123 L 9.1694568,17.590212 A 0.26268881,0.26268881 0 0 1 9.1067034,17.388023 L 8.1375245,16.854966 a 0.26268894,0.26268894 0 0 0 -0.2607448,0.0044 z M 20.066228,9.6706211 A 0.58340212,0.58340212 0 0 0 19.815422,10.25458 l 2.231977,12.92588 a 0.71320569,0.71320569 0 0 1 -0.328365,0.727888 l 0.638802,0.350774 a 0.71320681,0.71320681 0 0 0 1.04637,-0.745529 L 21.172229,10.587734 a 0.58340297,0.58340297 0 0 1 0.128256,-0.473578 l -0.55718,-0.4227564 a 0.58340212,0.58340212 0 0 0 -0.677009,-0.021486 z m 12.457873,-7.286065 a 0.26657666,0.26657666 0 0 0 -0.114156,0.215754 L 32.274638,16.958822 a 0.74397011,0.74397011 0 0 1 -0.284717,0.578483 l 0.447489,0.340308 a 0.74396916,0.74396916 0 0 0 1.194068,-0.585488 L 33.749662,4.7881637 32.927439,2.5125309 A 0.26657666,0.26657666 0 0 0 32.524,2.3846773 Z" />
    <path
       style="font-style:normal;font-weight:normal;font-size:10.5833px;line-height:1.25;font-family:sans-serif;fill:none;fill-opacity:1;stroke:#000000;stroke-width:0.681451;stroke-linecap:butt;stroke-linejoin:miter;stroke-miterlimit:4;stroke-dasharray:none;stroke-opacity:1"
       d="m 24.736562,35.865373 16.14982,-9.781656 a 0.6459041,0.6459041 109.4709 0 0 0.272886,-0.771851 L 32.60069,1.6117795 a 0.09519008,0.09519008 170.34202 0 0 -0.184717,0.031435 L 32.262767,17.907235 a 0.26565809,0.26565809 153.88164 0 1 -0.42635,0.209036 L 19.98138,9.1101207 a 0.20832225,0.20832225 148.71213 0 0 -0.331302,0.2013391 l 2.556656,14.8025172 a 0.25467332,0.25467332 144.50046 0 1 -0.373648,0.266516 L 7.2998106,16.390682 A 0.09380125,0.09380125 128.85219 0 0 7.1839315,16.534538 L 23.936112,35.74073 a 0.6294452,0.6294452 8.8508052 0 0 0.80045,0.124643 z"
       id="path2472"
       inkscape:path-effect="#path-effect1697"
       inkscape:original-d="M 24.283944,36.139516 41.339,25.809574 32.420958,1.1140712 32.257782,18.436378 19.560015,8.7900137 22.296797,24.635423 6.8360993,16.135752 Z" />
    <path
       style="font-style:normal;font-weight:normal;font-size:10.5833px;line-height:1.25;font-family:sans-serif;fill:#eecb00;fill-opacity:1;stroke:none;stroke-width:0.568539px;stroke-linecap:butt;stroke-linejoin:miter;stroke-opacity:1"
       d="m 14.83417,48.398296 21.361918,0 a 0.96885568,0.96885568 140.67342 0 0 0.949919,-0.778235 l 5.633355,-28.072728 a 0.14278425,0.14278425 21.544471 0 0 -0.26142,-0.10321 l -9.654146,15.605733 a 0.39848659,0.39848659 5.0840597 0 1 -0.709453,-0.06312 L 25.989458,19.395332 a 0.31248454,0.31248454 179.91465 0 0 -0.581527,8.66e-4 l -6.17456,15.75296 a 0.38200987,0.38200987 175.70306 0 1 -0.686504,0.05158 L 9.1882656,18.98931 a 0.14070201,0.14070201 160.05481 0 0 -0.2604647,0.09452 l 4.9762431,28.532519 a 0.94416627,0.94416627 40.05339 0 0 0.930126,0.781947 z"
       id="path2476"
       inkscape:path-effect="#path-effect1695"
       inkscape:original-d="M 14.04042,48.398296 H 36.989838 L 42.935531,18.769098 32.446207,35.724881 25.697594,18.657189 18.943708,35.888167 8.7914247,18.301883 Z" />
    <path
       style="font-style:normal;font-weight:normal;font-size:10.5833px;line-height:1.25;font-family:sans-serif;fill:#eb7f00;fill-opacity:1;stroke:none;stroke-width:0.568539px;stroke-linecap:butt;stroke-linejoin:miter;stroke-opacity:1"
       d="m 40.916724,22.037895 -4.727084,23.55442 a 2.0818893,2.0818893 0 0 1 -2.040969,1.672311 H 14.610629 a 2.0288377,2.0288377 0 0 1 -0.748426,-0.143334 2.0288377,2.0288377 0 0 0 1.885517,1.280326 h 19.538009 a 2.0818893,2.0818893 0 0 0 2.040967,-1.67231 l 5.274562,-26.284979 a 0.30681702,0.30681702 0 0 0 -0.561881,-0.222067 z"
       id="path2480" />
    <path
       id="path2482"
       style="font-style:normal;font-weight:normal;font-size:10.5833px;line-height:1.25;font-family:sans-serif;fill:#ffffff;fill-opacity:1;stroke:none;stroke-width:0.568539px;stroke-linecap:butt;stroke-linejoin:miter;stroke-opacity:1"
       d="M 9.3852685,19.633824 A 0.3023425,0.3023425 0 0 0 9.0843669,19.988056 L 13.74704,46.72497 a 2.0288385,2.0288385 0 0 0 1.250341,1.536832 2.028837,2.028837 0 0 1 -0.113148,-0.399744 L 10.221438,21.125143 a 0.30234228,0.30234228 0 0 1 0.05889,-0.236504 L 9.6440518,19.785959 A 0.3023425,0.3023425 0 0 0 9.3853212,19.63383 Z m 16.2855655,0.192117 a 0.67146805,0.67146805 0 0 0 -0.595188,0.425294 l -5.509957,14.05583 a 0.8208657,0.8208657 0 0 1 -0.757322,0.520788 l 0.419758,0.726211 a 0.82086709,0.82086709 0 0 0 1.474621,-0.110024 l 5.509991,-14.055812 a 0.67146903,0.67146903 0 0 1 0.408644,-0.389751 L 26.324912,20.250046 A 0.67146805,0.67146805 0 0 0 25.670868,19.82585 Z m 16.608706,0.255406 a 0.30681702,0.30681702 0 0 0 -0.24107,0.144408 l -8.694663,14.054691 a 0.85627421,0.85627421 0 0 1 -0.625171,0.399764 l 0.237712,0.601842 a 0.85627305,0.85627305 0 0 0 1.524649,0.135575 l 7.572012,-12.239163 0.547443,-2.730536 a 0.30681702,0.30681702 0 0 0 -0.320978,-0.36644 z" />
    <path
       style="font-style:normal;font-weight:normal;font-size:10.5833px;line-height:1.25;font-family:sans-serif;fill:none;fill-opacity:1;stroke:#000000;stroke-width:0.784318;stroke-linecap:butt;stroke-linejoin:miter;stroke-miterlimit:4;stroke-dasharray:none;stroke-opacity:1"
       d="m 14.83417,48.398296 21.361918,0 a 0.96885568,0.96885568 140.67342 0 0 0.949919,-0.778235 l 5.633355,-28.072728 a 0.14278425,0.14278425 21.544471 0 0 -0.26142,-0.10321 l -9.654146,15.605733 a 0.39848659,0.39848659 5.0840597 0 1 -0.709453,-0.06312 L 25.989458,19.395332 a 0.31248454,0.31248454 179.91465 0 0 -0.581527,8.66e-4 l -6.17456,15.75296 a 0.38200987,0.38200987 175.70306 0 1 -0.686504,0.05158 L 9.1882656,18.98931 a 0.14070201,0.14070201 160.05481 0 0 -0.2604647,0.09452 l 4.9762431,28.532519 a 0.94416627,0.94416627 40.05339 0 0 0.930126,0.781947 z"
       id="path2484"
       inkscape:path-effect="#path-effect1693"
       inkscape:original-d="M 14.04042,48.398296 H 36.989838 L 42.935531,18.769098 32.446207,35.724881 25.697594,18.657189 18.943708,35.888167 8.7914247,18.301883 Z" />
  </g>
</svg>
